<?xml version="1.0" encoding="UTF-8" standalone="no"?>
<!-- Created with Inkscape (http://www.inkscape.org/) -->

<svg
   xmlns:dc="http://purl.org/dc/elements/1.1/"
   xmlns:cc="http://creativecommons.org/ns#"
   xmlns:rdf="http://www.w3.org/1999/02/22-rdf-syntax-ns#"
   xmlns:svg="http://www.w3.org/2000/svg"
   xmlns="http://www.w3.org/2000/svg"
   xmlns:sodipodi="http://sodipodi.sourceforge.net/DTD/sodipodi-0.dtd"
   xmlns:inkscape="http://www.inkscape.org/namespaces/inkscape"
   width="210mm"
   height="297mm"
   id="svg2"
   version="1.1"
   inkscape:version="0.48.2 r9819"
   sodipodi:docname="Logo4.svg">
  <defs
     id="defs4">
    <marker
       inkscape:stockid="Arrow1Lstart"
       orient="auto"
       refY="0.0"
       refX="0.0"
       id="Arrow1Lstart"
       style="overflow:visible">
      <path
         id="path3798"
         d="M 0.0,0.0 L 5.0,-5.0 L -12.5,0.0 L 5.0,5.0 L 0.0,0.0 z "
         style="fill-rule:evenodd;stroke:#000000;stroke-width:1.0pt;marker-start:none"
         transform="scale(0.8) translate(12.5,0)" />
    </marker>
  </defs>
  <sodipodi:namedview
     id="base"
     pagecolor="#ffffff"
     bordercolor="#666666"
     borderopacity="1.0"
     inkscape:pageopacity="0.0"
     inkscape:pageshadow="2"
     inkscape:zoom="0.98994949"
     inkscape:cx="356.503"
     inkscape:cy="495.41173"
     inkscape:document-units="px"
     inkscape:current-layer="layer1"
     showgrid="true"
     showguides="false"
     inkscape:guide-bbox="true"
     inkscape:window-width="1920"
     inkscape:window-height="1058"
     inkscape:window-x="-8"
     inkscape:window-y="-8"
     inkscape:window-maximized="1">
    <inkscape:grid
       type="xygrid"
       id="grid4611" />
  </sodipodi:namedview>
  <metadata
     id="metadata7">
    <rdf:RDF>
      <cc:Work
         rdf:about="">
        <dc:format>image/svg+xml</dc:format>
        <dc:type
           rdf:resource="http://purl.org/dc/dcmitype/StillImage" />
        <dc:title></dc:title>
      </cc:Work>
    </rdf:RDF>
  </metadata>
  <g
     inkscape:label="Capa 1"
     inkscape:groupmode="layer"
     id="layer1">
    <path
       sodipodi:type="arc"
       style="fill:#000000;fill-opacity:1;stroke:#000000;stroke-width:0;stroke-linejoin:miter;stroke-miterlimit:4;stroke-opacity:1;stroke-dasharray:none"
       id="path2985"
       sodipodi:cx="138.57143"
       sodipodi:cy="253.79076"
       sodipodi:rx="61.42857"
       sodipodi:ry="61.42857"
       d="m 200,253.79076 a 61.42857,61.42857 0 1 1 -122.857143,0 61.42857,61.42857 0 1 1 122.857143,0 z"
       transform="matrix(1,0,0,1.3023257,92.857143,41.843968)" />
    <path
       sodipodi:type="arc"
       style="fill:#000000;fill-opacity:1;stroke:none"
       id="path2985-1"
       sodipodi:cx="138.57143"
       sodipodi:cy="253.79076"
       sodipodi:rx="61.42857"
       sodipodi:ry="61.42857"
       d="m 200,253.79076 a 61.42857,61.42857 0 1 1 -122.857143,0 61.42857,61.42857 0 1 1 122.857143,0 z"
       transform="matrix(1,0,0,1.3023257,250,41.843968)" />
    <path
       style="fill:#000000;fill-opacity:1;stroke:none;stroke-width:25;marker-start:none"
       d="m 110,452.36218 c 0,0 60,140 200,140 140,0 200,-140 200,-140 -60,0 -80,100 -200,100 -120,0 -140,-100 -200,-100 z"
       id="path3005"
       inkscape:connector-curvature="0"
       sodipodi:nodetypes="cscsc" />
    <path
       sodipodi:type="arc"
       style="fill:#cccccc;fill-opacity:1;stroke:none"
       id="path4613"
       sodipodi:cx="110"
       sodipodi:cy="217.36218"
       sodipodi:rx="40"
       sodipodi:ry="45"
       d="m 150,217.36218 a 40,45 0 1 1 -80,0 40,45 0 1 1 80,0 z"
       transform="translate(120,125)" />
    <path
       sodipodi:type="arc"
       style="fill:#cccccc;fill-opacity:1;stroke:none"
       id="path4613-4"
       sodipodi:cx="110"
       sodipodi:cy="217.36218"
       sodipodi:rx="40"
       sodipodi:ry="45"
       d="m 150,217.36218 a 40,45 0 1 1 -80,0 40,45 0 1 1 80,0 z"
       transform="translate(280,125)" />
    <path
       sodipodi:type="arc"
       style="fill:#ffffff;fill-opacity:1;stroke:none"
       id="path4613-9"
       sodipodi:cx="110"
       sodipodi:cy="217.36218"
       sodipodi:rx="40"
       sodipodi:ry="45"
       d="m 150,217.36218 a 40,45 0 1 1 -80,0 40,45 0 1 1 80,0 z"
       transform="matrix(0.5,0,0,0.5,175,209.68109)" />
    <path
       sodipodi:type="arc"
       style="fill:#ffffff;fill-opacity:1;stroke:none"
       id="path4613-9-4"
       sodipodi:cx="110"
       sodipodi:cy="217.36218"
       sodipodi:rx="40"
       sodipodi:ry="45"
       d="m 150,217.36218 a 40,45 0 1 1 -80,0 40,45 0 1 1 80,0 z"
       transform="matrix(0.5,0,0,0.5,335,211.18109)" />
    <path
       sodipodi:type="arc"
       style="fill:none;stroke:#000000;stroke-width:20;stroke-miterlimit:4;stroke-opacity:1;stroke-dasharray:none"
       id="path4689"
       sodipodi:cx="315"
       sodipodi:cy="432.36218"
       sodipodi:rx="250"
       sodipodi:ry="250"
       d="m 565,432.36218 a 250,250 0 1 1 -500,0 250,250 0 1 1 500,0 z" />
  </g>
</svg>
